<svg width="1800" height="500" viewBox="0 0 1800 500" xmlns="http://www.w3.org/2000/svg" role="img" aria-labelledby="title desc">
<title id="title">Greenbro Logo</title>
<desc id="desc">Horizontal Greenbro lockup with tagline Endorsed by Nature</desc>
  <style>
    .brand-green { fill: #39B54A; }
    .brand-grey { fill: #414042; }
    .brand-text { fill: #111111; }
    .brand-font { font-family: 'Montserrat', 'Helvetica Neue', Arial, sans-serif; letter-spacing: -2px; }
  </style>
  <text x="0" y="240" class="brand-font brand-green" font-size="220" font-weight="800">GREEN</text>
  <text x="930" y="240" class="brand-font brand-grey" font-size="220" font-weight="800">BRO</text>
  <g transform="translate(1500 170) scale(1.4)">
    <path class="brand-green" d="M 60.00,0.00 46.36,12.42 51.96,30.00 33.94,33.94 30.00,51.96 12.42,46.36 0.00,60.00 -12.42,46.36 -30.00,51.96 -33.94,33.94 -51.96,30.00 -46.36,12.42 -60.00,0.00 -46.36,-12.42 -51.96,-30.00 -33.94,-33.94 -30.00,-51.96 -12.42,-46.36 -0.00,-60.00 12.42,-46.36 30.00,-51.96 33.94,-33.94 51.96,-30.00 46.36,-12.42 Z"/>
    <circle cx="0" cy="0" r="24" fill="#FFFFFF"/>
  </g>
  <text x="0" y="390" class="brand-font brand-text" font-size="90" font-weight="500" letter-spacing="2px">ENDORSED BY NATURE®</text>
</svg>
