<svg xmlns="http://www.w3.org/2000/svg" width="1900" height="520" viewBox="0 0 1900 520"><path fill="#39b54a" fill-rule="evenodd" d="M 1266 108 L 1262 112 L 1262 113 L 1253 122 L 1253 123 L 1249 127 L 1247 127 L 1246 126 L 1245 126 L 1244 125 L 1242 125 L 1241 124 L 1239 124 L 1238 123 L 1237 123 L 1236 122 L 1234 122 L 1233 121 L 1231 121 L 1230 120 L 1229 120 L 1228 119 L 1226 119 L 1225 118 L 1225 120 L 1224 121 L 1224 125 L 1223 126 L 1223 131 L 1222 132 L 1222 136 L 1221 137 L 1221 141 L 1220 142 L 1220 144 L 1219 145 L 1215 145 L 1214 146 L 1210 146 L 1209 147 L 1204 147 L 1203 148 L 1199 148 L 1198 149 L 1194 149 L 1194 150 L 1195 151 L 1195 152 L 1196 153 L 1196 155 L 1197 156 L 1197 158 L 1198 159 L 1198 160 L 1199 161 L 1199 163 L 1200 164 L 1200 166 L 1201 167 L 1201 168 L 1202 169 L 1202 171 L 1203 172 L 1203 173 L 1198 178 L 1197 178 L 1189 186 L 1188 186 L 1184 190 L 1186 192 L 1187 192 L 1192 197 L 1193 197 L 1199 203 L 1200 203 L 1203 206 L 1203 207 L 1202 208 L 1202 210 L 1201 211 L 1201 212 L 1200 213 L 1200 215 L 1199 216 L 1199 218 L 1198 219 L 1198 221 L 1197 222 L 1197 224 L 1196 225 L 1196 226 L 1195 227 L 1195 229 L 1194 230 L 1194 231 L 1200 231 L 1201 232 L 1206 232 L 1207 233 L 1213 233 L 1214 234 L 1219 234 L 1220 235 L 1220 237 L 1221 238 L 1221 242 L 1222 243 L 1222 247 L 1223 248 L 1223 253 L 1224 254 L 1224 258 L 1225 259 L 1225 261 L 1226 260 L 1228 260 L 1229 259 L 1230 259 L 1231 258 L 1233 258 L 1234 257 L 1236 257 L 1237 256 L 1238 256 L 1239 255 L 1241 255 L 1242 254 L 1244 254 L 1245 253 L 1246 253 L 1247 252 L 1249 252 L 1252 255 L 1252 256 L 1258 262 L 1258 263 L 1263 268 L 1263 269 L 1266 272 L 1268 270 L 1268 269 L 1272 265 L 1272 264 L 1276 260 L 1276 259 L 1280 255 L 1280 254 L 1282 252 L 1284 252 L 1285 253 L 1287 253 L 1288 254 L 1289 254 L 1290 255 L 1292 255 L 1293 256 L 1295 256 L 1296 257 L 1298 257 L 1299 258 L 1300 258 L 1301 259 L 1303 259 L 1304 260 L 1306 260 L 1307 261 L 1307 258 L 1308 257 L 1308 252 L 1309 251 L 1309 245 L 1310 244 L 1310 239 L 1311 238 L 1311 235 L 1312 234 L 1317 234 L 1318 233 L 1324 233 L 1325 232 L 1330 232 L 1331 231 L 1337 231 L 1337 230 L 1336 229 L 1336 227 L 1335 226 L 1335 225 L 1334 224 L 1334 222 L 1333 221 L 1333 219 L 1332 218 L 1332 216 L 1331 215 L 1331 213 L 1330 212 L 1330 211 L 1329 210 L 1329 208 L 1328 207 L 1328 206 L 1331 203 L 1332 203 L 1336 199 L 1337 199 L 1341 195 L 1342 195 L 1346 191 L 1347 191 L 1348 190 L 1346 188 L 1345 188 L 1339 182 L 1338 182 L 1332 176 L 1331 176 L 1328 173 L 1328 172 L 1329 171 L 1329 169 L 1330 168 L 1330 167 L 1331 166 L 1331 164 L 1332 163 L 1332 161 L 1333 160 L 1333 158 L 1334 157 L 1334 155 L 1335 154 L 1335 153 L 1336 152 L 1336 150 L 1337 149 L 1337 148 L 1331 148 L 1330 147 L 1325 147 L 1324 146 L 1318 146 L 1317 145 L 1312 145 L 1311 144 L 1311 141 L 1310 140 L 1310 135 L 1309 134 L 1309 128 L 1308 127 L 1308 122 L 1307 121 L 1307 118 L 1306 119 L 1304 119 L 1303 120 L 1301 120 L 1300 121 L 1299 121 L 1298 122 L 1296 122 L 1295 123 L 1293 123 L 1292 124 L 1290 124 L 1289 125 L 1288 125 L 1287 126 L 1285 126 L 1284 127 L 1282 127 L 1279 124 L 1279 123 L 1274 118 L 1274 117 L 1269 112 L 1269 111 Z M 1260 156 L 1261 155 L 1271 155 L 1272 156 L 1275 156 L 1276 157 L 1278 157 L 1279 158 L 1281 158 L 1283 160 L 1284 160 L 1286 162 L 1287 162 L 1294 169 L 1294 170 L 1296 172 L 1296 173 L 1298 175 L 1298 177 L 1299 178 L 1299 180 L 1300 181 L 1300 184 L 1301 185 L 1301 195 L 1300 196 L 1300 199 L 1299 200 L 1299 202 L 1298 203 L 1298 205 L 1296 207 L 1296 208 L 1294 210 L 1294 211 L 1287 218 L 1286 218 L 1284 220 L 1283 220 L 1281 222 L 1279 222 L 1278 223 L 1276 223 L 1275 224 L 1272 224 L 1271 225 L 1261 225 L 1260 224 L 1257 224 L 1256 223 L 1254 223 L 1253 222 L 1251 222 L 1249 220 L 1248 220 L 1246 218 L 1245 218 L 1238 211 L 1238 210 L 1236 208 L 1236 207 L 1234 205 L 1234 203 L 1233 202 L 1233 200 L 1232 199 L 1232 196 L 1231 195 L 1231 185 L 1232 184 L 1232 181 L 1233 180 L 1233 178 L 1234 177 L 1234 175 L 1236 173 L 1236 172 L 1238 170 L 1238 169 L 1245 162 L 1246 162 L 1248 160 L 1249 160 L 1251 158 L 1253 158 L 1254 157 L 1256 157 L 1257 156 Z" /><path fill="#39b54a" fill-rule="evenodd" d="M 114 109 L 113 110 L 108 110 L 107 111 L 103 111 L 102 112 L 100 112 L 99 113 L 97 113 L 96 114 L 95 114 L 94 115 L 93 115 L 92 116 L 90 116 L 88 118 L 87 118 L 86 119 L 85 119 L 83 121 L 82 121 L 80 123 L 79 123 L 66 136 L 66 137 L 64 139 L 64 140 L 62 142 L 62 143 L 61 144 L 61 145 L 60 146 L 60 147 L 59 148 L 59 149 L 58 150 L 58 151 L 57 152 L 57 153 L 56 154 L 56 156 L 55 157 L 55 159 L 54 160 L 54 162 L 53 163 L 53 166 L 52 167 L 52 171 L 51 172 L 51 179 L 50 180 L 50 200 L 51 201 L 51 207 L 52 208 L 52 212 L 53 213 L 53 216 L 54 217 L 54 220 L 55 221 L 55 223 L 56 224 L 56 226 L 57 227 L 57 228 L 58 229 L 58 230 L 59 231 L 59 233 L 61 235 L 61 236 L 62 237 L 62 238 L 63 239 L 63 240 L 65 242 L 65 243 L 68 246 L 68 247 L 77 256 L 78 256 L 81 259 L 82 259 L 84 261 L 85 261 L 86 262 L 87 262 L 88 263 L 89 263 L 90 264 L 91 264 L 92 265 L 93 265 L 94 266 L 95 266 L 96 267 L 98 267 L 99 268 L 101 268 L 102 269 L 105 269 L 106 270 L 109 270 L 110 271 L 115 271 L 116 272 L 144 272 L 145 271 L 150 271 L 151 270 L 154 270 L 155 269 L 158 269 L 159 268 L 162 268 L 163 267 L 165 267 L 166 266 L 167 266 L 168 265 L 170 265 L 171 264 L 172 264 L 173 263 L 175 263 L 176 262 L 177 262 L 178 261 L 179 261 L 180 260 L 181 260 L 182 259 L 183 259 L 184 258 L 185 258 L 187 256 L 188 256 L 190 254 L 191 254 L 194 251 L 195 251 L 197 249 L 197 185 L 129 185 L 129 211 L 164 211 L 165 212 L 165 231 L 161 235 L 160 235 L 159 236 L 158 236 L 156 238 L 155 238 L 154 239 L 153 239 L 152 240 L 150 240 L 149 241 L 148 241 L 147 242 L 145 242 L 144 243 L 142 243 L 141 244 L 138 244 L 137 245 L 119 245 L 118 244 L 115 244 L 114 243 L 112 243 L 111 242 L 110 242 L 109 241 L 108 241 L 107 240 L 106 240 L 105 239 L 104 239 L 101 236 L 100 236 L 95 231 L 95 230 L 92 227 L 92 226 L 90 224 L 90 223 L 89 222 L 89 221 L 88 220 L 88 218 L 87 217 L 87 215 L 86 214 L 86 212 L 85 211 L 85 208 L 84 207 L 84 201 L 83 200 L 83 178 L 84 177 L 84 172 L 85 171 L 85 168 L 86 167 L 86 165 L 87 164 L 87 162 L 88 161 L 88 160 L 89 159 L 89 158 L 90 157 L 90 156 L 91 155 L 91 154 L 95 150 L 95 149 L 98 146 L 99 146 L 102 143 L 103 143 L 105 141 L 106 141 L 107 140 L 108 140 L 109 139 L 110 139 L 111 138 L 113 138 L 114 137 L 117 137 L 118 136 L 137 136 L 138 137 L 141 137 L 142 138 L 144 138 L 145 139 L 146 139 L 147 140 L 148 140 L 150 142 L 151 142 L 158 149 L 158 150 L 160 152 L 160 153 L 161 154 L 161 155 L 162 156 L 162 157 L 163 158 L 163 160 L 169 160 L 170 159 L 174 159 L 175 158 L 179 158 L 180 157 L 185 157 L 186 156 L 190 156 L 191 155 L 195 155 L 195 152 L 194 151 L 194 148 L 193 147 L 193 145 L 192 144 L 192 143 L 191 142 L 191 141 L 190 140 L 190 139 L 189 138 L 189 137 L 188 136 L 188 135 L 186 133 L 186 132 L 182 128 L 182 127 L 180 125 L 179 125 L 174 120 L 173 120 L 171 118 L 170 118 L 169 117 L 168 117 L 167 116 L 166 116 L 165 115 L 164 115 L 163 114 L 161 114 L 160 113 L 158 113 L 157 112 L 155 112 L 154 111 L 150 111 L 149 110 L 144 110 L 143 109 Z" /><path fill="#39b54a" fill-rule="evenodd" d="M 227 112 L 227 269 L 258 269 L 258 204 L 259 203 L 265 203 L 266 204 L 277 204 L 278 205 L 280 205 L 281 206 L 283 206 L 285 208 L 286 208 L 294 216 L 294 217 L 297 220 L 297 221 L 299 223 L 299 224 L 301 226 L 301 227 L 304 230 L 304 231 L 306 233 L 306 234 L 308 236 L 308 237 L 310 239 L 310 240 L 312 242 L 312 243 L 314 245 L 314 246 L 316 248 L 316 249 L 318 251 L 318 252 L 320 254 L 320 255 L 322 257 L 322 258 L 324 260 L 324 261 L 326 263 L 326 264 L 328 266 L 328 267 L 330 269 L 368 269 L 368 268 L 366 266 L 366 265 L 364 263 L 364 262 L 363 261 L 363 260 L 361 258 L 361 257 L 359 255 L 359 254 L 358 253 L 358 252 L 356 250 L 356 249 L 354 247 L 354 246 L 353 245 L 353 244 L 351 242 L 351 241 L 349 239 L 349 238 L 348 237 L 348 236 L 346 234 L 346 233 L 344 231 L 344 230 L 342 228 L 342 227 L 340 225 L 340 224 L 338 222 L 338 221 L 335 218 L 335 217 L 324 206 L 323 206 L 320 203 L 319 203 L 318 202 L 317 202 L 315 200 L 316 199 L 320 199 L 321 198 L 324 198 L 325 197 L 327 197 L 328 196 L 330 196 L 331 195 L 332 195 L 333 194 L 334 194 L 335 193 L 336 193 L 338 191 L 339 191 L 342 188 L 343 188 L 345 186 L 345 185 L 348 182 L 348 181 L 350 179 L 350 178 L 351 177 L 351 176 L 352 175 L 352 174 L 353 173 L 353 171 L 354 170 L 354 166 L 355 165 L 355 146 L 354 145 L 354 142 L 353 141 L 353 139 L 352 138 L 352 137 L 351 136 L 351 135 L 350 134 L 350 133 L 349 132 L 349 131 L 347 129 L 347 128 L 339 120 L 338 120 L 336 118 L 335 118 L 334 117 L 333 117 L 332 116 L 330 116 L 329 115 L 327 115 L 326 114 L 322 114 L 321 113 L 315 113 L 314 112 Z M 258 139 L 259 138 L 283 138 L 284 139 L 308 139 L 309 140 L 311 140 L 312 141 L 313 141 L 315 143 L 316 143 L 319 146 L 319 147 L 321 149 L 321 150 L 322 151 L 322 155 L 323 156 L 323 160 L 322 161 L 322 165 L 321 166 L 321 167 L 320 168 L 320 169 L 314 175 L 313 175 L 312 176 L 311 176 L 310 177 L 306 177 L 305 178 L 285 178 L 284 179 L 259 179 L 258 178 Z" /><path fill="#39b54a" fill-rule="evenodd" d="M 386 112 L 386 269 L 505 269 L 505 243 L 418 243 L 417 242 L 417 201 L 418 200 L 496 200 L 496 174 L 418 174 L 417 173 L 417 139 L 418 138 L 502 138 L 502 112 Z" /><path fill="#39b54a" fill-rule="evenodd" d="M 533 112 L 533 269 L 652 269 L 652 243 L 565 243 L 564 242 L 564 201 L 565 200 L 643 200 L 643 174 L 565 174 L 564 173 L 564 139 L 565 138 L 649 138 L 649 112 Z" /><path fill="#39b54a" fill-rule="evenodd" d="M 680 112 L 680 269 L 709 269 L 709 169 L 710 168 L 712 170 L 712 171 L 713 172 L 713 173 L 715 175 L 715 176 L 716 177 L 716 178 L 718 180 L 718 181 L 719 182 L 719 183 L 721 185 L 721 186 L 723 188 L 723 189 L 724 190 L 724 191 L 726 193 L 726 194 L 727 195 L 727 196 L 729 198 L 729 199 L 731 201 L 731 202 L 732 203 L 732 204 L 734 206 L 734 207 L 735 208 L 735 209 L 737 211 L 737 212 L 739 214 L 739 215 L 740 216 L 740 217 L 742 219 L 742 220 L 743 221 L 743 222 L 745 224 L 745 225 L 747 227 L 747 228 L 748 229 L 748 230 L 750 232 L 750 233 L 751 234 L 751 235 L 753 237 L 753 238 L 755 240 L 755 241 L 756 242 L 756 243 L 758 245 L 758 246 L 759 247 L 759 248 L 761 250 L 761 251 L 762 252 L 762 253 L 764 255 L 764 256 L 766 258 L 766 259 L 767 260 L 767 261 L 769 263 L 769 264 L 770 265 L 770 266 L 772 268 L 772 269 L 805 269 L 805 112 L 775 112 L 775 213 L 774 214 L 773 213 L 773 212 L 772 211 L 772 210 L 770 208 L 770 207 L 768 205 L 768 204 L 767 203 L 767 202 L 765 200 L 765 199 L 764 198 L 764 197 L 762 195 L 762 194 L 760 192 L 760 191 L 759 190 L 759 189 L 757 187 L 757 186 L 756 185 L 756 184 L 754 182 L 754 181 L 752 179 L 752 178 L 751 177 L 751 176 L 749 174 L 749 173 L 748 172 L 748 171 L 746 169 L 746 168 L 744 166 L 744 165 L 743 164 L 743 163 L 741 161 L 741 160 L 740 159 L 740 158 L 738 156 L 738 155 L 736 153 L 736 152 L 735 151 L 735 150 L 733 148 L 733 147 L 732 146 L 732 145 L 730 143 L 730 142 L 729 141 L 729 140 L 727 138 L 727 137 L 725 135 L 725 134 L 724 133 L 724 132 L 722 130 L 722 129 L 721 128 L 721 127 L 719 125 L 719 124 L 717 122 L 717 121 L 716 120 L 716 119 L 714 117 L 714 116 L 713 115 L 713 114 L 711 112 Z" /><path fill="#414042" fill-rule="evenodd" d="M 879 112 L 879 269 L 969 269 L 970 268 L 976 268 L 977 267 L 980 267 L 981 266 L 983 266 L 984 265 L 986 265 L 987 264 L 988 264 L 990 262 L 991 262 L 993 260 L 994 260 L 1001 253 L 1001 252 L 1003 250 L 1003 249 L 1005 247 L 1005 246 L 1006 245 L 1006 244 L 1007 243 L 1007 241 L 1008 240 L 1008 238 L 1009 237 L 1009 234 L 1010 233 L 1010 225 L 1011 224 L 1010 223 L 1010 215 L 1009 214 L 1009 211 L 1008 210 L 1008 208 L 1007 207 L 1007 206 L 1006 205 L 1006 204 L 1004 202 L 1004 201 L 996 193 L 995 193 L 993 191 L 992 191 L 991 190 L 990 190 L 989 189 L 988 189 L 987 188 L 986 188 L 985 187 L 983 187 L 982 186 L 983 185 L 984 185 L 986 183 L 987 183 L 991 179 L 992 179 L 992 178 L 996 174 L 996 173 L 998 171 L 998 170 L 999 169 L 999 168 L 1000 167 L 1000 166 L 1001 165 L 1001 162 L 1002 161 L 1002 157 L 1003 156 L 1003 147 L 1002 146 L 1002 142 L 1001 141 L 1001 138 L 1000 137 L 1000 136 L 999 135 L 999 134 L 998 133 L 998 132 L 996 130 L 996 129 L 986 119 L 985 119 L 984 118 L 983 118 L 982 117 L 981 117 L 980 116 L 979 116 L 978 115 L 976 115 L 975 114 L 972 114 L 971 113 L 966 113 L 965 112 Z M 910 202 L 911 201 L 936 201 L 937 202 L 958 202 L 959 203 L 963 203 L 964 204 L 965 204 L 966 205 L 967 205 L 968 206 L 969 206 L 975 212 L 975 213 L 976 214 L 976 215 L 977 216 L 977 220 L 978 221 L 978 224 L 977 225 L 977 229 L 976 230 L 976 231 L 975 232 L 975 233 L 969 239 L 968 239 L 967 240 L 966 240 L 965 241 L 962 241 L 961 242 L 942 242 L 941 243 L 911 243 L 910 242 Z M 910 139 L 911 138 L 929 138 L 930 139 L 958 139 L 959 140 L 961 140 L 962 141 L 963 141 L 964 142 L 965 142 L 969 146 L 969 147 L 970 148 L 970 149 L 971 150 L 971 152 L 972 153 L 972 159 L 971 160 L 971 163 L 970 164 L 970 165 L 964 171 L 963 171 L 962 172 L 961 172 L 960 173 L 957 173 L 956 174 L 934 174 L 933 175 L 911 175 L 910 174 Z" /><path fill="#414042" fill-rule="evenodd" d="M 1038 112 L 1038 269 L 1069 269 L 1069 204 L 1070 203 L 1076 203 L 1077 204 L 1088 204 L 1089 205 L 1091 205 L 1092 206 L 1094 206 L 1096 208 L 1097 208 L 1105 216 L 1105 217 L 1108 220 L 1108 221 L 1110 223 L 1110 224 L 1112 226 L 1112 227 L 1115 230 L 1115 231 L 1117 233 L 1117 234 L 1119 236 L 1119 237 L 1121 239 L 1121 240 L 1123 242 L 1123 243 L 1125 245 L 1125 246 L 1127 248 L 1127 249 L 1129 251 L 1129 252 L 1131 254 L 1131 255 L 1133 257 L 1133 258 L 1135 260 L 1135 261 L 1137 263 L 1137 264 L 1139 266 L 1139 267 L 1141 269 L 1179 269 L 1179 268 L 1177 266 L 1177 265 L 1175 263 L 1175 262 L 1174 261 L 1174 260 L 1172 258 L 1172 257 L 1170 255 L 1170 254 L 1169 253 L 1169 252 L 1167 250 L 1167 249 L 1165 247 L 1165 246 L 1164 245 L 1164 244 L 1162 242 L 1162 241 L 1160 239 L 1160 238 L 1159 237 L 1159 236 L 1157 234 L 1157 233 L 1155 231 L 1155 230 L 1153 228 L 1153 227 L 1151 225 L 1151 224 L 1149 222 L 1149 221 L 1146 218 L 1146 217 L 1135 206 L 1134 206 L 1131 203 L 1130 203 L 1129 202 L 1128 202 L 1126 200 L 1127 199 L 1131 199 L 1132 198 L 1135 198 L 1136 197 L 1138 197 L 1139 196 L 1141 196 L 1142 195 L 1143 195 L 1144 194 L 1145 194 L 1146 193 L 1147 193 L 1149 191 L 1150 191 L 1153 188 L 1154 188 L 1156 186 L 1156 185 L 1159 182 L 1159 181 L 1161 179 L 1161 178 L 1162 177 L 1162 176 L 1163 175 L 1163 174 L 1164 173 L 1164 171 L 1165 170 L 1165 166 L 1166 165 L 1166 146 L 1165 145 L 1165 142 L 1164 141 L 1164 139 L 1163 138 L 1163 137 L 1162 136 L 1162 135 L 1161 134 L 1161 133 L 1160 132 L 1160 131 L 1158 129 L 1158 128 L 1150 120 L 1149 120 L 1147 118 L 1146 118 L 1145 117 L 1144 117 L 1143 116 L 1141 116 L 1140 115 L 1138 115 L 1137 114 L 1133 114 L 1132 113 L 1126 113 L 1125 112 Z M 1069 139 L 1070 138 L 1094 138 L 1095 139 L 1119 139 L 1120 140 L 1122 140 L 1123 141 L 1124 141 L 1126 143 L 1127 143 L 1130 146 L 1130 147 L 1132 149 L 1132 150 L 1133 151 L 1133 155 L 1134 156 L 1134 160 L 1133 161 L 1133 165 L 1132 166 L 1132 167 L 1131 168 L 1131 169 L 1125 175 L 1124 175 L 1123 176 L 1122 176 L 1121 177 L 1117 177 L 1116 178 L 1096 178 L 1095 179 L 1070 179 L 1069 178 Z" /><path fill="#111111" fill-rule="evenodd" d="M 257 406 L 256 407 L 253 407 L 252 408 L 251 408 L 250 409 L 249 409 L 248 410 L 247 410 L 240 417 L 240 418 L 238 420 L 238 421 L 237 422 L 237 423 L 236 424 L 236 426 L 235 427 L 235 431 L 234 432 L 234 446 L 235 447 L 235 451 L 236 452 L 236 453 L 237 454 L 237 456 L 238 457 L 238 458 L 240 460 L 240 461 L 246 467 L 247 467 L 249 469 L 250 469 L 251 470 L 252 470 L 253 471 L 256 471 L 257 472 L 273 472 L 274 471 L 276 471 L 277 470 L 278 470 L 279 469 L 280 469 L 281 468 L 282 468 L 285 465 L 286 465 L 288 463 L 288 462 L 290 460 L 290 459 L 292 457 L 292 455 L 293 454 L 293 453 L 294 452 L 294 449 L 295 448 L 295 430 L 294 429 L 294 426 L 293 425 L 293 424 L 292 423 L 292 422 L 291 421 L 291 420 L 290 419 L 290 418 L 287 415 L 287 414 L 286 413 L 285 413 L 282 410 L 281 410 L 280 409 L 279 409 L 278 408 L 277 408 L 276 407 L 274 407 L 273 406 Z M 259 414 L 260 413 L 270 413 L 271 414 L 272 414 L 273 415 L 274 415 L 275 416 L 276 416 L 283 423 L 283 424 L 284 425 L 284 426 L 285 427 L 285 429 L 286 430 L 286 435 L 287 436 L 287 442 L 286 443 L 286 448 L 285 449 L 285 451 L 284 452 L 284 453 L 283 454 L 283 455 L 275 463 L 274 463 L 273 464 L 271 464 L 270 465 L 260 465 L 259 464 L 257 464 L 256 463 L 255 463 L 254 462 L 253 462 L 247 456 L 247 455 L 245 453 L 245 451 L 244 450 L 244 448 L 243 447 L 243 431 L 244 430 L 244 428 L 245 427 L 245 425 L 246 424 L 246 423 L 253 416 L 254 416 L 255 415 L 256 415 L 257 414 Z" /><path fill="#111111" fill-rule="evenodd" d="M 386 406 L 385 407 L 383 407 L 382 408 L 380 408 L 378 410 L 377 410 L 374 413 L 374 414 L 373 415 L 373 416 L 372 417 L 372 419 L 371 420 L 371 427 L 372 428 L 372 430 L 373 431 L 373 432 L 378 437 L 379 437 L 380 438 L 381 438 L 382 439 L 384 439 L 385 440 L 387 440 L 388 441 L 391 441 L 392 442 L 395 442 L 396 443 L 399 443 L 400 444 L 402 444 L 403 445 L 405 445 L 406 446 L 407 446 L 410 449 L 410 450 L 411 451 L 411 452 L 412 453 L 412 455 L 411 456 L 411 457 L 410 458 L 410 459 L 407 462 L 406 462 L 405 463 L 404 463 L 403 464 L 401 464 L 400 465 L 391 465 L 390 464 L 388 464 L 387 463 L 386 463 L 385 462 L 384 462 L 378 456 L 378 454 L 377 453 L 377 450 L 369 450 L 369 456 L 370 457 L 370 459 L 371 460 L 371 461 L 372 462 L 372 463 L 377 468 L 378 468 L 379 469 L 380 469 L 381 470 L 382 470 L 383 471 L 386 471 L 387 472 L 404 472 L 405 471 L 407 471 L 408 470 L 409 470 L 410 469 L 411 469 L 413 467 L 414 467 L 416 465 L 416 464 L 418 462 L 418 460 L 419 459 L 419 457 L 420 456 L 420 450 L 419 449 L 419 447 L 418 446 L 418 445 L 417 444 L 417 443 L 413 439 L 412 439 L 411 438 L 410 438 L 409 437 L 408 437 L 407 436 L 405 436 L 404 435 L 401 435 L 400 434 L 397 434 L 396 433 L 393 433 L 392 432 L 389 432 L 388 431 L 386 431 L 385 430 L 384 430 L 380 426 L 380 425 L 379 424 L 379 421 L 380 420 L 380 419 L 384 415 L 385 415 L 386 414 L 388 414 L 389 413 L 398 413 L 399 414 L 402 414 L 404 416 L 405 416 L 407 418 L 407 419 L 408 420 L 408 421 L 409 422 L 409 424 L 410 425 L 418 425 L 418 422 L 417 421 L 417 418 L 416 417 L 416 416 L 415 415 L 415 414 L 411 410 L 410 410 L 408 408 L 406 408 L 405 407 L 403 407 L 402 406 Z" /><path fill="#111111" fill-rule="evenodd" d="M 1115 406 L 1114 407 L 1112 407 L 1111 408 L 1109 408 L 1108 409 L 1107 409 L 1105 411 L 1104 411 L 1102 413 L 1101 413 L 1097 417 L 1097 418 L 1095 420 L 1095 421 L 1093 423 L 1093 425 L 1092 426 L 1092 427 L 1091 428 L 1091 431 L 1090 432 L 1090 446 L 1091 447 L 1091 450 L 1092 451 L 1092 452 L 1093 453 L 1093 455 L 1095 457 L 1095 458 L 1097 460 L 1097 461 L 1102 466 L 1103 466 L 1104 467 L 1105 467 L 1107 469 L 1108 469 L 1109 470 L 1111 470 L 1112 471 L 1114 471 L 1115 472 L 1131 472 L 1132 471 L 1134 471 L 1135 470 L 1136 470 L 1137 469 L 1138 469 L 1139 468 L 1140 468 L 1141 467 L 1142 467 L 1150 459 L 1150 458 L 1152 456 L 1152 455 L 1153 454 L 1153 452 L 1154 451 L 1154 450 L 1155 449 L 1155 445 L 1156 444 L 1156 434 L 1155 433 L 1155 429 L 1154 428 L 1154 427 L 1153 426 L 1153 424 L 1152 423 L 1152 422 L 1150 420 L 1150 419 L 1142 411 L 1141 411 L 1140 410 L 1139 410 L 1138 409 L 1137 409 L 1136 408 L 1135 408 L 1134 407 L 1132 407 L 1131 406 Z M 1118 412 L 1119 411 L 1127 411 L 1128 412 L 1131 412 L 1132 413 L 1133 413 L 1134 414 L 1135 414 L 1136 415 L 1137 415 L 1139 417 L 1140 417 L 1145 422 L 1145 423 L 1146 424 L 1146 425 L 1148 427 L 1148 429 L 1149 430 L 1149 432 L 1150 433 L 1150 445 L 1149 446 L 1149 448 L 1148 449 L 1148 451 L 1146 453 L 1146 454 L 1144 456 L 1144 457 L 1140 461 L 1139 461 L 1137 463 L 1136 463 L 1135 464 L 1134 464 L 1133 465 L 1132 465 L 1131 466 L 1128 466 L 1127 467 L 1119 467 L 1118 466 L 1115 466 L 1114 465 L 1112 465 L 1111 464 L 1110 464 L 1108 462 L 1107 462 L 1100 455 L 1100 454 L 1099 453 L 1099 452 L 1098 451 L 1098 450 L 1097 449 L 1097 448 L 1096 447 L 1096 444 L 1095 443 L 1095 435 L 1096 434 L 1096 431 L 1097 430 L 1097 429 L 1098 428 L 1098 427 L 1099 426 L 1099 425 L 1100 424 L 1100 423 L 1107 416 L 1108 416 L 1110 414 L 1111 414 L 1112 413 L 1114 413 L 1115 412 Z" /><path fill="#111111" fill-rule="evenodd" d="M 47 407 L 47 471 L 95 471 L 95 464 L 56 464 L 55 463 L 55 443 L 56 442 L 91 442 L 91 435 L 56 435 L 55 434 L 55 415 L 56 414 L 93 414 L 93 407 Z" /><path fill="#111111" fill-rule="evenodd" d="M 106 407 L 106 471 L 115 471 L 115 424 L 116 423 L 117 424 L 117 425 L 119 427 L 119 428 L 121 430 L 121 431 L 123 433 L 123 434 L 125 436 L 125 437 L 127 439 L 127 440 L 129 442 L 129 443 L 131 445 L 131 446 L 133 448 L 133 449 L 135 451 L 135 452 L 137 454 L 137 455 L 139 457 L 139 458 L 140 459 L 140 460 L 142 462 L 142 463 L 144 465 L 144 466 L 146 468 L 146 469 L 148 471 L 157 471 L 157 407 L 149 407 L 149 454 L 148 455 L 146 453 L 146 452 L 144 450 L 144 449 L 142 447 L 142 446 L 140 444 L 140 443 L 138 441 L 138 440 L 136 438 L 136 437 L 134 435 L 134 434 L 132 432 L 132 431 L 130 429 L 130 428 L 128 426 L 128 425 L 126 423 L 126 422 L 124 420 L 124 419 L 122 417 L 122 416 L 120 414 L 120 413 L 118 411 L 118 410 L 116 408 L 116 407 Z" /><path fill="#111111" fill-rule="evenodd" d="M 171 407 L 171 471 L 204 471 L 205 470 L 208 470 L 209 469 L 210 469 L 211 468 L 212 468 L 214 466 L 215 466 L 218 463 L 218 462 L 220 460 L 220 459 L 221 458 L 221 457 L 222 456 L 222 454 L 223 453 L 223 451 L 224 450 L 224 444 L 225 443 L 225 434 L 224 433 L 224 428 L 223 427 L 223 424 L 222 423 L 222 422 L 221 421 L 221 420 L 220 419 L 220 418 L 218 416 L 218 415 L 214 411 L 213 411 L 211 409 L 209 409 L 208 408 L 206 408 L 205 407 Z M 180 415 L 181 414 L 200 414 L 201 415 L 204 415 L 205 416 L 206 416 L 213 423 L 213 424 L 214 425 L 214 427 L 215 428 L 215 432 L 216 433 L 216 445 L 215 446 L 215 449 L 214 450 L 214 452 L 213 453 L 213 454 L 212 455 L 212 456 L 206 462 L 205 462 L 204 463 L 201 463 L 200 464 L 181 464 L 180 463 Z" /><path fill="#111111" fill-rule="evenodd" d="M 307 407 L 307 471 L 315 471 L 315 444 L 316 443 L 330 443 L 331 444 L 332 444 L 333 445 L 334 445 L 338 449 L 338 450 L 341 453 L 341 454 L 343 456 L 343 457 L 344 458 L 344 459 L 346 461 L 346 462 L 348 464 L 348 465 L 350 467 L 350 468 L 351 469 L 351 470 L 352 471 L 363 471 L 363 470 L 361 468 L 361 467 L 359 465 L 359 464 L 358 463 L 358 462 L 356 460 L 356 459 L 354 457 L 354 456 L 352 454 L 352 453 L 350 451 L 350 450 L 344 444 L 343 444 L 342 443 L 344 441 L 346 441 L 347 440 L 349 440 L 351 438 L 352 438 L 356 434 L 356 433 L 357 432 L 357 430 L 358 429 L 358 420 L 357 419 L 357 417 L 356 416 L 356 415 L 355 414 L 355 413 L 351 409 L 350 409 L 349 408 L 347 408 L 346 407 Z M 315 415 L 316 414 L 341 414 L 342 415 L 343 415 L 344 416 L 345 416 L 348 419 L 348 420 L 349 421 L 349 428 L 348 429 L 348 430 L 345 433 L 344 433 L 343 434 L 342 434 L 341 435 L 334 435 L 333 436 L 316 436 L 315 435 Z" /><path fill="#111111" fill-rule="evenodd" d="M 432 407 L 432 471 L 480 471 L 480 464 L 441 464 L 440 463 L 440 443 L 441 442 L 476 442 L 476 435 L 441 435 L 440 434 L 440 415 L 441 414 L 478 414 L 478 407 Z" /><path fill="#111111" fill-rule="evenodd" d="M 491 407 L 491 471 L 524 471 L 525 470 L 528 470 L 529 469 L 530 469 L 531 468 L 532 468 L 534 466 L 535 466 L 538 463 L 538 462 L 540 460 L 540 459 L 541 458 L 541 457 L 542 456 L 542 454 L 543 453 L 543 451 L 544 450 L 544 444 L 545 443 L 545 434 L 544 433 L 544 428 L 543 427 L 543 424 L 542 423 L 542 422 L 541 421 L 541 420 L 540 419 L 540 418 L 538 416 L 538 415 L 534 411 L 533 411 L 531 409 L 529 409 L 528 408 L 526 408 L 525 407 Z M 500 415 L 501 414 L 520 414 L 521 415 L 524 415 L 525 416 L 526 416 L 533 423 L 533 424 L 534 425 L 534 427 L 535 428 L 535 432 L 536 433 L 536 445 L 535 446 L 535 449 L 534 450 L 534 452 L 533 453 L 533 454 L 532 455 L 532 456 L 526 462 L 525 462 L 524 463 L 521 463 L 520 464 L 501 464 L 500 463 Z" /><path fill="#111111" fill-rule="evenodd" d="M 581 407 L 581 471 L 615 471 L 616 470 L 619 470 L 620 469 L 621 469 L 623 467 L 624 467 L 626 465 L 626 464 L 628 462 L 628 460 L 629 459 L 629 456 L 630 455 L 630 450 L 629 449 L 629 446 L 628 445 L 628 444 L 627 443 L 627 442 L 625 440 L 624 440 L 622 438 L 621 438 L 619 436 L 620 435 L 621 435 L 624 432 L 624 431 L 625 430 L 625 429 L 626 428 L 626 425 L 627 424 L 627 422 L 626 421 L 626 417 L 625 416 L 625 415 L 623 413 L 623 412 L 622 411 L 621 411 L 619 409 L 618 409 L 617 408 L 615 408 L 614 407 Z M 590 442 L 591 441 L 611 441 L 612 442 L 614 442 L 615 443 L 616 443 L 619 446 L 619 447 L 620 448 L 620 449 L 621 450 L 621 455 L 620 456 L 620 457 L 619 458 L 619 459 L 616 462 L 615 462 L 614 463 L 612 463 L 611 464 L 591 464 L 590 463 Z M 590 415 L 591 414 L 610 414 L 611 415 L 613 415 L 617 419 L 617 420 L 618 421 L 618 427 L 617 428 L 617 429 L 614 432 L 613 432 L 612 433 L 604 433 L 603 434 L 591 434 L 590 433 Z" /><path fill="#111111" fill-rule="evenodd" d="M 635 407 L 636 408 L 636 409 L 638 411 L 638 412 L 640 414 L 640 415 L 642 417 L 642 418 L 644 420 L 644 421 L 646 423 L 646 424 L 648 426 L 648 427 L 650 429 L 650 430 L 652 432 L 652 433 L 654 435 L 654 436 L 656 438 L 656 439 L 658 441 L 658 442 L 660 444 L 660 471 L 668 471 L 668 444 L 669 443 L 669 442 L 672 439 L 672 438 L 674 436 L 674 435 L 676 433 L 676 432 L 678 430 L 678 429 L 681 426 L 681 425 L 683 423 L 683 422 L 685 420 L 685 419 L 688 416 L 688 415 L 690 413 L 690 412 L 692 410 L 692 409 L 694 407 L 683 407 L 683 408 L 681 410 L 681 411 L 679 413 L 679 414 L 677 416 L 677 417 L 675 419 L 675 420 L 673 422 L 673 423 L 671 425 L 671 426 L 669 428 L 669 429 L 667 431 L 667 432 L 666 433 L 666 434 L 665 435 L 664 435 L 663 434 L 663 433 L 662 432 L 662 431 L 660 429 L 660 428 L 658 426 L 658 425 L 656 423 L 656 422 L 654 420 L 654 419 L 652 417 L 652 416 L 650 414 L 650 413 L 648 411 L 648 410 L 646 408 L 646 407 Z" /><path fill="#111111" fill-rule="evenodd" d="M 726 407 L 726 471 L 735 471 L 735 424 L 736 423 L 737 424 L 737 425 L 739 427 L 739 428 L 741 430 L 741 431 L 743 433 L 743 434 L 745 436 L 745 437 L 747 439 L 747 440 L 749 442 L 749 443 L 751 445 L 751 446 L 753 448 L 753 449 L 755 451 L 755 452 L 757 454 L 757 455 L 759 457 L 759 458 L 760 459 L 760 460 L 762 462 L 762 463 L 764 465 L 764 466 L 766 468 L 766 469 L 768 471 L 777 471 L 777 407 L 769 407 L 769 454 L 768 455 L 766 453 L 766 452 L 764 450 L 764 449 L 762 447 L 762 446 L 760 444 L 760 443 L 758 441 L 758 440 L 756 438 L 756 437 L 754 435 L 754 434 L 752 432 L 752 431 L 750 429 L 750 428 L 748 426 L 748 425 L 746 423 L 746 422 L 744 420 L 744 419 L 742 417 L 742 416 L 740 414 L 740 413 L 738 411 L 738 410 L 736 408 L 736 407 Z" /><path fill="#111111" fill-rule="evenodd" d="M 809 407 L 808 408 L 808 410 L 807 411 L 807 413 L 806 414 L 806 415 L 805 416 L 805 418 L 804 419 L 804 420 L 803 421 L 803 423 L 802 424 L 802 426 L 801 427 L 801 428 L 800 429 L 800 431 L 799 432 L 799 434 L 798 435 L 798 436 L 797 437 L 797 439 L 796 440 L 796 441 L 795 442 L 795 444 L 794 445 L 794 447 L 793 448 L 793 449 L 792 450 L 792 452 L 791 453 L 791 455 L 790 456 L 790 457 L 789 458 L 789 460 L 788 461 L 788 462 L 787 463 L 787 465 L 786 466 L 786 468 L 785 469 L 785 470 L 784 471 L 794 471 L 794 469 L 795 468 L 795 466 L 796 465 L 796 464 L 797 463 L 797 461 L 798 460 L 798 458 L 799 457 L 799 455 L 800 454 L 800 452 L 801 451 L 826 451 L 828 453 L 828 454 L 829 455 L 829 457 L 830 458 L 830 460 L 831 461 L 831 462 L 832 463 L 832 465 L 833 466 L 833 467 L 834 468 L 834 470 L 835 471 L 845 471 L 844 470 L 844 469 L 843 468 L 843 466 L 842 465 L 842 464 L 841 463 L 841 461 L 840 460 L 840 459 L 839 458 L 839 456 L 838 455 L 838 454 L 837 453 L 837 452 L 836 451 L 836 449 L 835 448 L 835 447 L 834 446 L 834 444 L 833 443 L 833 442 L 832 441 L 832 439 L 831 438 L 831 437 L 830 436 L 830 434 L 829 433 L 829 432 L 828 431 L 828 429 L 827 428 L 827 427 L 826 426 L 826 424 L 825 423 L 825 422 L 824 421 L 824 419 L 823 418 L 823 417 L 822 416 L 822 415 L 821 414 L 821 412 L 820 411 L 820 410 L 819 409 L 819 407 Z M 814 416 L 815 417 L 815 419 L 816 420 L 816 422 L 817 423 L 817 425 L 818 426 L 818 428 L 819 429 L 819 430 L 820 431 L 820 433 L 821 434 L 821 436 L 822 437 L 822 438 L 823 439 L 823 441 L 824 442 L 824 444 L 823 445 L 804 445 L 803 444 L 804 443 L 804 441 L 805 440 L 805 439 L 806 438 L 806 436 L 807 435 L 807 433 L 808 432 L 808 431 L 809 430 L 809 428 L 810 427 L 810 425 L 811 424 L 811 422 L 812 421 L 812 418 Z" /><path fill="#111111" fill-rule="evenodd" d="M 847 407 L 847 414 L 867 414 L 868 415 L 868 471 L 876 471 L 876 415 L 877 414 L 898 414 L 898 407 Z" /><path fill="#111111" fill-rule="evenodd" d="M 907 407 L 907 455 L 908 456 L 908 459 L 909 460 L 909 461 L 910 462 L 910 463 L 912 465 L 912 466 L 913 467 L 914 467 L 916 469 L 917 469 L 918 470 L 919 470 L 920 471 L 922 471 L 923 472 L 941 472 L 942 471 L 944 471 L 945 470 L 946 470 L 947 469 L 948 469 L 953 464 L 953 463 L 955 461 L 955 459 L 956 458 L 956 455 L 957 454 L 957 407 L 949 407 L 949 449 L 948 450 L 948 454 L 947 455 L 947 457 L 946 458 L 946 459 L 942 463 L 941 463 L 940 464 L 937 464 L 936 465 L 927 465 L 926 464 L 924 464 L 923 463 L 922 463 L 918 459 L 918 458 L 917 457 L 917 456 L 916 455 L 916 452 L 915 451 L 915 407 Z" /><path fill="#111111" fill-rule="evenodd" d="M 972 407 L 972 471 L 980 471 L 980 444 L 981 443 L 995 443 L 996 444 L 997 444 L 998 445 L 999 445 L 1003 449 L 1003 450 L 1006 453 L 1006 454 L 1008 456 L 1008 457 L 1009 458 L 1009 459 L 1011 461 L 1011 462 L 1013 464 L 1013 465 L 1015 467 L 1015 468 L 1016 469 L 1016 470 L 1017 471 L 1028 471 L 1028 470 L 1026 468 L 1026 467 L 1024 465 L 1024 464 L 1023 463 L 1023 462 L 1021 460 L 1021 459 L 1019 457 L 1019 456 L 1017 454 L 1017 453 L 1015 451 L 1015 450 L 1009 444 L 1008 444 L 1007 443 L 1009 441 L 1011 441 L 1012 440 L 1014 440 L 1016 438 L 1017 438 L 1021 434 L 1021 433 L 1022 432 L 1022 430 L 1023 429 L 1023 420 L 1022 419 L 1022 417 L 1021 416 L 1021 415 L 1020 414 L 1020 413 L 1016 409 L 1015 409 L 1014 408 L 1012 408 L 1011 407 Z M 980 415 L 981 414 L 1006 414 L 1007 415 L 1008 415 L 1009 416 L 1010 416 L 1013 419 L 1013 420 L 1014 421 L 1014 428 L 1013 429 L 1013 430 L 1010 433 L 1009 433 L 1008 434 L 1007 434 L 1006 435 L 999 435 L 998 436 L 981 436 L 980 435 Z" /><path fill="#111111" fill-rule="evenodd" d="M 1037 407 L 1037 471 L 1085 471 L 1085 464 L 1046 464 L 1045 463 L 1045 443 L 1046 442 L 1081 442 L 1081 435 L 1046 435 L 1045 434 L 1045 415 L 1046 414 L 1083 414 L 1083 407 Z" /><path fill="#111111" fill-rule="evenodd" d="M 1108 422 L 1108 457 L 1114 457 L 1114 443 L 1115 442 L 1118 442 L 1119 443 L 1121 443 L 1125 447 L 1125 448 L 1127 450 L 1127 451 L 1128 452 L 1128 453 L 1130 455 L 1130 456 L 1131 457 L 1138 457 L 1138 456 L 1136 454 L 1136 453 L 1134 451 L 1134 450 L 1132 448 L 1132 447 L 1129 444 L 1129 443 L 1128 443 L 1127 442 L 1128 441 L 1130 441 L 1131 440 L 1132 440 L 1134 438 L 1134 437 L 1135 436 L 1135 434 L 1136 433 L 1136 429 L 1135 428 L 1135 427 L 1134 426 L 1134 425 L 1133 424 L 1132 424 L 1131 423 L 1130 423 L 1129 422 Z M 1114 427 L 1115 426 L 1123 426 L 1124 427 L 1126 427 L 1130 431 L 1130 432 L 1129 433 L 1129 434 L 1126 437 L 1121 437 L 1120 438 L 1115 438 L 1114 437 Z" /></svg>